<?xml version="1.0" standalone="no"?>
<!DOCTYPE svg PUBLIC "-//W3C//DTD SVG 20010904//EN"
 "http://www.w3.org/TR/2001/REC-SVG-20010904/DTD/svg10.dtd">
<svg version="1.0" xmlns="http://www.w3.org/2000/svg"
 width="158.000000pt" height="158.000000pt" viewBox="0 0 158.000000 158.000000"
 preserveAspectRatio="xMidYMid meet">

<g transform="translate(0.000000,158.000000) scale(0.100000,-0.100000)"
fill="#17192D" stroke="none">
<path d="M435 1263 l-340 -228 0 -245 0 -245 340 -227 c187 -126 347 -228 355
-228 8 0 168 102 355 228 l340 227 3 239 c2 181 -1 242 -10 254 -19 24 -660
445 -683 449 -13 3 -134 -72 -360 -224z m295 -81 l0 -149 -131 -87 -131 -87
-109 72 c-68 45 -106 76 -100 82 8 8 462 315 469 316 1 1 2 -66 2 -147z m358
-13 c125 -83 231 -155 236 -159 7 -7 -192 -150 -209 -150 -3 0 -64 39 -135 87
l-130 86 0 144 c0 78 2 143 5 143 3 0 108 -68 233 -151z m-184 -304 c58 -38
106 -72 106 -75 0 -3 -50 -38 -110 -78 l-110 -72 -110 72 c-60 40 -110 75
-110 78 0 7 214 149 221 147 4 -1 54 -33 113 -72z m472 -173 c-6 -5 -156 90
-156 99 0 4 35 29 78 57 l77 52 3 -101 c1 -56 0 -104 -2 -107z m-1086 151 c38
-27 69 -50 70 -53 0 -6 -144 -100 -153 -100 -4 0 -7 45 -7 100 0 65 4 100 11
100 6 0 42 -21 79 -47z m310 -210 l130 -86 0 -144 c0 -78 -2 -143 -5 -143 -6
0 -454 297 -469 310 -7 7 187 148 207 149 4 1 66 -38 137 -86z m626 16 c59
-39 102 -74 98 -79 -15 -13 -463 -310 -469 -310 -3 0 -5 65 -5 144 l0 144 127
86 c70 47 131 86 135 86 5 0 56 -32 114 -71z"/>
</g>
</svg>
